<svg width="323" height="332" viewBox="0 0 323 332" fill="none" xmlns="http://www.w3.org/2000/svg">
<path d="M158.839 128.673C160.392 127.776 162.306 127.776 163.859 128.673L192.442 145.175C193.995 146.072 194.952 147.729 194.952 149.523V182.527C194.952 184.32 193.995 185.978 192.442 186.875L163.859 203.377C162.306 204.274 160.392 204.274 158.839 203.377L130.256 186.875C128.703 185.978 127.746 184.32 127.746 182.527V149.523C127.746 147.729 128.703 146.072 130.256 145.175L158.839 128.673Z" fill="#FF9B63"/>
<path fill-rule="evenodd" clip-rule="evenodd" d="M109.996 53.1232C101.547 53.0941 93.7244 57.5747 89.4748 64.877L67.7067 102.283C76.0944 107.164 86.851 104.322 91.7322 95.9339L104.662 73.7152C105.754 71.8387 107.764 70.6874 109.935 70.6948L135.642 70.7832C145.347 70.8165 153.241 62.9765 153.274 53.2719L109.996 53.1232ZM169.545 53.3278C169.512 63.0324 177.352 70.9265 187.056 70.9599L212.763 71.0482C214.934 71.0557 216.936 72.2208 218.016 74.1047L230.793 96.4118C235.616 104.833 246.353 107.749 254.774 102.926L233.263 65.3712C229.064 58.0398 221.272 53.5056 212.824 53.4766L169.545 53.3278ZM262.861 117.045C254.44 121.868 251.523 132.605 256.346 141.026L269.123 163.333C270.203 165.217 270.195 167.533 269.103 169.41L256.173 191.629C251.291 200.016 254.134 210.773 262.522 215.654L284.29 178.248C288.539 170.946 288.57 161.931 284.371 154.599L262.861 117.045ZM254.338 229.717C245.95 224.836 235.194 227.678 230.313 236.066L217.383 258.285C216.291 260.161 214.28 261.313 212.109 261.305L186.402 261.217C176.698 261.183 168.804 269.024 168.77 278.728L212.049 278.877C220.498 278.906 228.32 274.425 232.57 267.123L254.338 229.717ZM152.5 278.672C152.533 268.968 144.693 261.073 134.988 261.04L109.281 260.952C107.11 260.944 105.108 259.779 104.029 257.895L91.2522 235.588C86.4288 227.167 75.692 224.251 67.271 229.074L88.7815 266.629C92.9807 273.96 100.772 278.494 109.221 278.523L152.5 278.672ZM59.1841 214.955C67.6052 210.132 70.5217 199.395 65.6983 190.974L52.9213 168.667C51.8422 166.783 51.8502 164.467 52.9422 162.59L65.8722 140.371C70.7533 131.984 67.9107 121.227 59.523 116.346L37.7548 153.752C33.5053 161.054 33.4743 170.069 37.6736 177.4L59.1841 214.955Z" fill="#01055E"/>
</svg>
