<?xml version="1.0" encoding="UTF-8"?>
<svg id="Layer_1" data-name="Layer 1" xmlns="http://www.w3.org/2000/svg" viewBox="0 0 1059.62 234.81">
  <defs>
    <style>
      .cls-1, .cls-2 {
        fill: #000;
        stroke-width: 0px;
      }

      .cls-2 {
        fill-rule: evenodd;
      }
    </style>
  </defs>
  <path class="cls-1" d="M124.55,75.55c1.55-.9,3.47-.9,5.02,0l28.58,16.5c1.55.9,2.51,2.55,2.51,4.35v33c0,1.79-.96,3.45-2.51,4.35l-28.58,16.5c-1.55.9-3.47.9-5.02,0l-28.58-16.5c-1.55-.9-2.51-2.55-2.51-4.35v-33c0-1.79.96-3.45,2.51-4.35l28.58-16.5Z"/>
  <path class="cls-2" d="M75.45,0c-8.45-.03-16.27,4.45-20.52,11.75l-21.77,37.41c8.39,4.88,19.14,2.04,24.03-6.35l12.93-22.22c1.09-1.88,3.1-3.03,5.27-3.02l25.71.09c9.71.03,17.6-7.81,17.63-17.51L75.45,0ZM135,.2c-.03,9.7,7.81,17.6,17.51,17.63l25.71.09c2.17,0,4.17,1.17,5.25,3.06l12.78,22.31c4.82,8.42,15.56,11.34,23.98,6.51l-21.51-37.55c-4.2-7.33-11.99-11.87-20.44-11.89l-43.28-.15ZM228.32,63.92c-8.42,4.82-11.34,15.56-6.51,23.98l12.78,22.31c1.08,1.88,1.07,4.2-.02,6.08l-12.93,22.22c-4.88,8.39-2.04,19.14,6.35,24.03l21.77-37.41c4.25-7.3,4.28-16.32.08-23.65l-21.51-37.55ZM219.79,176.59c-8.39-4.88-19.14-2.04-24.02,6.35l-12.93,22.22c-1.09,1.88-3.1,3.03-5.27,3.02l-25.71-.09c-9.7-.03-17.6,7.81-17.63,17.51l43.28.15c8.45.03,16.27-4.45,20.52-11.75l21.77-37.41ZM117.95,225.55c.03-9.7-7.81-17.6-17.51-17.63l-25.71-.09c-2.17,0-4.17-1.17-5.25-3.06l-12.78-22.31c-4.82-8.42-15.56-11.34-23.98-6.51l21.51,37.55c4.2,7.33,11.99,11.86,20.44,11.89l43.28.15ZM24.64,161.83c8.42-4.82,11.34-15.56,6.51-23.98l-12.78-22.31c-1.08-1.88-1.07-4.2.02-6.08l12.93-22.22c4.88-8.39,2.04-19.14-6.35-24.03L3.21,100.63c-4.25,7.3-4.28,16.32-.08,23.65l21.51,37.56Z"/>
  <path class="cls-1" d="M597.17,224.74l-37.69-92.02-10.96-1.47v-12.43h44.44v12.43l-13.8,1.96,23.49,60.3,2.74,8.52h.59l3.13-8.52,21.83-60.3-14.2-1.96v-12.43h44.35v12.43l-11.16,1.47-35.83,92.02h-16.94Z"/>
  <path class="cls-1" d="M500.04,226.8c-9.79,0-18.31-2.22-25.55-6.66-7.24-4.5-12.86-10.74-16.84-18.7-3.92-7.96-5.87-17.16-5.87-27.61v-4.31c0-10.05,2.06-19.02,6.17-26.92,4.18-7.96,9.69-14.23,16.54-18.8,6.92-4.63,14.46-6.95,22.61-6.95,9.53,0,17.49,1.96,23.89,5.87,6.46,3.92,11.32,9.43,14.59,16.54,3.26,7.05,4.9,15.37,4.9,24.96v12.04h-68.72l-.29.49c.13,6.79,1.3,12.82,3.52,18.11,2.28,5.22,5.55,9.33,9.79,12.33,4.24,3,9.33,4.5,15.27,4.5,6.53,0,12.24-.91,17.13-2.74,4.96-1.89,9.23-4.47,12.83-7.73l7.54,12.53c-3.79,3.65-8.81,6.75-15.08,9.3-6.2,2.48-13.67,3.72-22.42,3.72ZM472.34,161.21h48.85v-2.55c0-5.09-.91-9.63-2.74-13.61-1.76-4.05-4.44-7.21-8.03-9.5-3.52-2.35-7.96-3.52-13.31-3.52-4.31,0-8.22,1.27-11.75,3.82-3.52,2.48-6.43,5.87-8.71,10.18-2.29,4.31-3.79,9.2-4.5,14.68l.2.49Z"/>
  <path class="cls-1" d="M374.74,226.8c-8.62,0-16.02-2.12-22.22-6.36-6.14-4.31-10.83-10.28-14.1-17.92-3.26-7.64-4.9-16.54-4.9-26.73v-2.06c0-11.36,1.63-21.31,4.9-29.86,3.26-8.55,7.99-15.17,14.19-19.87,6.2-4.76,13.64-7.15,22.32-7.15,6.27,0,11.78,1.18,16.54,3.52,4.83,2.29,8.94,5.61,12.33,9.99v-43.17l-15.96-2.74v-12.43h35.24v137.64l15.96,2.74v12.34h-32.7l-1.57-12.63c-3.46,4.83-7.7,8.48-12.73,10.96-4.96,2.48-10.74,3.72-17.33,3.72ZM379.64,211.13c5.74,0,10.57-1.31,14.49-3.92,3.91-2.61,7.15-6.3,9.69-11.06v-49.14c-2.48-4.44-5.71-7.96-9.69-10.57-3.98-2.61-8.75-3.91-14.29-3.91-6.14,0-11.19,1.76-15.17,5.29-3.98,3.46-6.95,8.29-8.91,14.49-1.96,6.13-2.94,13.28-2.94,21.44v2.06c0,10.64,2.19,19.19,6.56,25.65,4.37,6.46,11.13,9.69,20.26,9.69Z"/>
  <path class="cls-1" d="M246.45,233.38l72.76-148.74,16.19,1.42-72.66,148.75-16.29-1.42Z"/>
  <path class="cls-1" d="M648.45,233.38l72.76-148.74,16.19,1.42-72.66,148.75-16.29-1.42Z"/>
  <path class="cls-1" d="M1008.42,224.74v-12.34l15.96-2.74v-122.47l-15.96-2.74v-12.43h35.24v137.64l15.96,2.74v12.34h-51.2Z"/>
  <path class="cls-1" d="M975.33,226.41c-7.83,0-14.07-2.29-18.7-6.85-4.57-4.63-6.85-12.01-6.85-22.12v-64.32h-16.74v-14.29h16.74v-25.55h19.28v25.55h23.01v14.29h-23.01v64.32c0,5.09,1.01,8.84,3.04,11.26,2.02,2.42,4.73,3.62,8.12,3.62,2.29,0,4.83-.2,7.64-.59,2.8-.46,4.99-.85,6.56-1.17l2.64,12.63c-2.81.85-6.26,1.6-10.38,2.25-4.04.65-7.83.98-11.35.98Z"/>
  <path class="cls-1" d="M748.22,224.74v-12.33l15.96-2.74v-75.67l-15.96-2.74v-12.43h33.28l1.27,13.8c3.39-5.02,7.77-8.91,13.12-11.65,5.35-2.74,11.55-4.11,18.6-4.11s13.09,1.63,18.11,4.9c5.09,3.26,8.91,8.16,11.45,14.68,3.33-6,7.73-10.77,13.22-14.29,5.48-3.52,11.88-5.29,19.19-5.29,10.83,0,19.38,3.72,25.65,11.16,6.27,7.38,9.4,18.5,9.4,33.38v48.26l15.96,2.74v12.33h-51.3v-12.33l15.96-2.74v-48.46c0-10.44-1.79-17.82-5.38-22.12-3.59-4.37-8.91-6.56-15.96-6.56s-12.14,2.38-16.25,7.15c-4.05,4.7-6.4,10.64-7.05,17.82v52.18l15.96,2.74v12.33h-51.2v-12.33l15.96-2.74v-48.46c0-9.92-1.86-17.16-5.58-21.73-3.65-4.63-8.97-6.95-15.96-6.95-5.87,0-10.7,1.21-14.49,3.62-3.78,2.42-6.69,5.81-8.71,10.18v63.34l15.96,2.74v12.33h-51.2Z"/>
</svg>