<?xml version="1.0" encoding="UTF-8"?>
<svg id="Layer_2" data-name="Layer 2" xmlns="http://www.w3.org/2000/svg" viewBox="0 0 107.23 30.01">
  <defs>
    <style>
      .cls-1 {
        fill: #fc361a;
        fill-rule: evenodd;
      }

      .cls-1, .cls-2 {
        stroke-width: 0px;
      }

      .cls-2 {
        fill: #1a0937;
      }
    </style>
  </defs>
  <g id="Layer_1-2" data-name="Layer 1">
    <g>
      <path class="cls-2" d="m12.93,7.41c0-2.26.55-4.07,1.66-5.4,1.1-1.33,2.79-2,5.07-2s3.97.66,5.08,2c1.13,1.33,1.68,3.13,1.68,5.4v15.21c0,2.24-.56,4.03-1.68,5.38-1.13,1.34-2.81,2.01-5.08,2.01s-3.95-.68-5.07-2.01c-1.1-1.34-1.66-3.14-1.66-5.38V7.41Zm3.24,15.38c0,1.34.29,2.39.86,3.13.58.74,1.45,1.11,2.63,1.11s2.09-.38,2.65-1.11c.56-.74.84-1.79.84-3.13V7.24c0-1.34-.28-2.39-.84-3.13-.56-.74-1.44-1.11-2.65-1.11s-2.05.38-2.63,1.11c-.58.74-.86,1.79-.86,3.13v15.55h0ZM35.71.01c2.24,0,3.89.66,4.95,2,1.06,1.33,1.6,3.12,1.6,5.35v.8h-3.12v-.96c0-1.34-.26-2.38-.8-3.12-.54-.74-1.39-1.09-2.56-1.09s-2.03.36-2.56,1.09c-.54.73-.8,1.75-.8,3.07,0,1.09.25,2.04.74,2.85.49.81,1.1,1.56,1.83,2.25.73.69,1.51,1.36,2.38,2.01.85.66,1.65,1.38,2.38,2.16.73.79,1.34,1.68,1.83,2.66.49.99.74,2.18.74,3.55,0,2.24-.54,4.03-1.61,5.35-1.08,1.33-2.75,2-5.02,2s-3.94-.66-5-2-1.6-3.12-1.6-5.35v-1.68h3.07v1.85c0,1.34.28,2.38.84,3.12s1.43,1.09,2.6,1.09,2.04-.36,2.6-1.09c.56-.73.84-1.76.84-3.12,0-1.09-.25-2.04-.74-2.84s-1.1-1.54-1.83-2.23c-.73-.69-1.51-1.36-2.35-2.01-.84-.66-1.63-1.38-2.35-2.16-.73-.79-1.34-1.68-1.83-2.66-.49-.99-.74-2.18-.74-3.55,0-2.26.54-4.07,1.6-5.38C31.84.68,33.48.01,35.69.01h.01Zm19.92,13.32v2.94h-7.18v10.46h8.82v2.98h-12.1V.31h12.1v2.98h-8.82v10.05h7.18ZM67.17.31c2.3,0,3.99.65,5.07,1.95,1.08,1.3,1.61,3.09,1.61,5.35v14.84c0,2.26-.54,4.05-1.61,5.34-1.08,1.29-2.76,1.93-5.07,1.93h-6.89V.31h6.89Zm-.04,26.43c1.18,0,2.05-.36,2.63-1.08.58-.71.86-1.74.86-3.09V7.44c0-1.34-.29-2.38-.86-3.09-.58-.71-1.46-1.08-2.66-1.08h-3.53v23.44h3.57v.02Zm20.25-13.4v2.94h-7.18v10.46h8.37l-.56,2.98h-11.07V.31h12.1v2.98h-8.82v10.05h7.18-.01Zm7.98,10.46l-1.14,5.93h-3.03L96.85.31h4.75l5.63,29.41h-3.28l-1.14-5.93h-7.44Zm.43-2.81h6.56l-3.31-16.98-3.24,16.98Z"/>
      <path class="cls-1" d="m5.49.31h3.23L3.23,29.72H0L5.49.31Z"/>
    </g>
  </g>
</svg>