<?xml version="1.0" encoding="UTF-8" standalone="no"?>
<svg
   fill="none"
   height="512"
   viewBox="0 0 1026 512"
   width="1026"
   version="1.1"
   id="svg565"
   sodipodi:docname="speaker-template-bg.svg"
   inkscape:version="1.1.2 (0a00cf5339, 2022-02-04)"
   xmlns:inkscape="http://www.inkscape.org/namespaces/inkscape"
   xmlns:sodipodi="http://sodipodi.sourceforge.net/DTD/sodipodi-0.dtd"
   xmlns:xlink="http://www.w3.org/1999/xlink"
   xmlns="http://www.w3.org/2000/svg"
   xmlns:svg="http://www.w3.org/2000/svg">
  <defs
     id="defs569" />
  <sodipodi:namedview
     id="namedview567"
     pagecolor="#ffffff"
     bordercolor="#666666"
     borderopacity="1.0"
     inkscape:pageshadow="2"
     inkscape:pageopacity="0.0"
     inkscape:pagecheckerboard="0"
     showgrid="false"
     inkscape:zoom="1.1683835"
     inkscape:cx="588.41983"
     inkscape:cy="257.6209"
     inkscape:window-width="1920"
     inkscape:window-height="1051"
     inkscape:window-x="3286"
     inkscape:window-y="0"
     inkscape:window-maximized="1"
     inkscape:current-layer="svg565" />
  <linearGradient
     id="a">
    <stop
       offset="0"
       stop-color="#e99c56"
       id="stop306" />
    <stop
       offset=".179"
       stop-color="#e59253"
       id="stop308" />
    <stop
       offset=".489"
       stop-color="#dc764c"
       id="stop310" />
    <stop
       offset=".888"
       stop-color="#cc4941"
       id="stop312" />
    <stop
       offset="1"
       stop-color="#c73b3d"
       id="stop314" />
  </linearGradient>
  <linearGradient
     id="b"
     gradientUnits="userSpaceOnUse"
     x1="799.29"
     x2="693.191"
     xlink:href="#a"
     y1="530.166"
     y2="530.166" />
  <linearGradient
     id="c"
     gradientUnits="userSpaceOnUse"
     x1="799.29"
     x2="770.504"
     xlink:href="#a"
     y1="530.166"
     y2="530.166" />
  <linearGradient
     id="d"
     gradientUnits="userSpaceOnUse"
     x1="719.787"
     x2="693.191"
     xlink:href="#a"
     y1="530.166"
     y2="530.166" />
  <linearGradient
     id="e"
     gradientUnits="userSpaceOnUse"
     x1="851.986"
     x2="745.888"
     xlink:href="#a"
     y1="496.18"
     y2="496.18" />
  <linearGradient
     id="f"
     gradientUnits="userSpaceOnUse"
     x1="851.986"
     x2="823.201"
     xlink:href="#a"
     y1="496.18"
     y2="496.18" />
  <linearGradient
     id="g"
     gradientUnits="userSpaceOnUse"
     x1="772.484"
     x2="745.888"
     xlink:href="#a"
     y1="496.18"
     y2="496.18" />
  <linearGradient
     id="h"
     gradientUnits="userSpaceOnUse"
     x1="911.107"
     x2="805.009"
     xlink:href="#a"
     y1="552.361"
     y2="552.361" />
  <linearGradient
     id="i"
     gradientUnits="userSpaceOnUse"
     x1="911.107"
     x2="882.322"
     xlink:href="#a"
     y1="552.361"
     y2="552.361" />
  <linearGradient
     id="j"
     gradientUnits="userSpaceOnUse"
     x1="831.605"
     x2="805.009"
     xlink:href="#a"
     y1="552.361"
     y2="552.361" />
  <linearGradient
     id="k"
     gradientUnits="userSpaceOnUse"
     x1="557.302"
     x2="598.464"
     xlink:href="#a"
     y1="367.602"
     y2="367.602" />
  <linearGradient
     id="l"
     gradientUnits="userSpaceOnUse"
     x1="557.302"
     x2="577.364"
     xlink:href="#a"
     y1="367.602"
     y2="367.602" />
  <linearGradient
     id="m"
     gradientUnits="userSpaceOnUse"
     x1="665.543"
     x2="641.15"
     xlink:href="#a"
     y1="487.276"
     y2="487.276" />
  <linearGradient
     id="n"
     gradientUnits="userSpaceOnUse"
     x1="665.543"
     x2="641.15"
     xlink:href="#a"
     y1="526.688"
     y2="526.688" />
  <linearGradient
     id="o"
     gradientUnits="userSpaceOnUse"
     x1="1009.48"
     x2="1003.01"
     xlink:href="#a"
     y1="393.042"
     y2="393.042" />
  <linearGradient
     id="p"
     gradientUnits="userSpaceOnUse"
     x1="964.185"
     x2="957.715"
     xlink:href="#a"
     y1="454.41"
     y2="454.41" />
  <clipPath
     id="q">
    <path
       d="m0 0h1025.19v512h-1025.19z"
       id="path332" />
  </clipPath>
  <path
     d="M 0,0 H 1025.5 V 512 H 0 Z"
     fill="#430632"
     id="path335" />
  <g
     opacity="0.3"
     id="g425">
    <path
       d="M 797.77,452.33 H 696.22 L 693.19,608 h 106.1 z"
       fill="url(#b)"
       opacity="0.3"
       id="path337"
       style="fill:url(#b)" />
    <path
       d="M 798.88,452.33 H 771.33 L 770.5,608 h 28.79 z"
       fill="url(#c)"
       opacity="0.3"
       id="path339"
       style="fill:url(#c)" />
    <path
       d="M 719.41,452.33 H 693.95 L 693.19,608 h 26.6 z"
       fill="url(#d)"
       opacity="0.3"
       id="path341"
       style="fill:url(#d)" />
    <path
       d="M 693.32,451.98 V 608 Z m -1.51,0 h 3.03 V 608 h -3.03 z m 106.09,0 V 608 Z m -1.51,0 h 3.03 V 608 h -3.03 z M 719.48,473.3 V 608 Z m -1.52,0 h 3.03 V 608 h -3.03 z m 53.05,1.65 V 608 Z m -1.51,0 h 3.03 V 608 h -3.03 z m -70.85,4.44 13.64,13.93 z m 13.64,15.45 c -0.39,0 -0.79,-0.15 -1.08,-0.46 l -13.64,-13.93 c -0.59,-0.6 -0.58,-1.56 0.02,-2.14 0.6,-0.59 1.56,-0.58 2.14,0.02 l 13.64,13.93 c 0.59,0.6 0.58,1.56 -0.02,2.14 -0.3,0.29 -0.68,0.44 -1.06,0.44 z m -13.64,2.74 13.64,13.93 z m 13.64,15.45 c -0.39,0 -0.79,-0.15 -1.08,-0.46 l -13.64,-13.93 c -0.59,-0.6 -0.58,-1.56 0.02,-2.14 0.6,-0.59 1.56,-0.58 2.14,0.02 l 13.64,13.93 c 0.59,0.6 0.58,1.56 -0.02,2.14 -0.3,0.29 -0.68,0.44 -1.06,0.44 z m -13.64,2.74 13.64,13.93 z m 13.64,15.44 c -0.39,0 -0.79,-0.15 -1.08,-0.46 l -13.64,-13.93 c -0.59,-0.6 -0.58,-1.56 0.02,-2.14 0.6,-0.59 1.56,-0.57 2.14,0.02 l 13.64,13.93 c 0.59,0.6 0.58,1.56 -0.02,2.14 -0.3,0.3 -0.68,0.44 -1.06,0.44 z m -13.64,2.75 13.64,13.93 z m 13.64,15.44 c -0.39,0 -0.79,-0.15 -1.08,-0.46 l -13.64,-13.93 c -0.59,-0.6 -0.58,-1.56 0.02,-2.14 0.6,-0.59 1.56,-0.58 2.14,0.02 l 13.64,13.93 c 0.59,0.6 0.58,1.56 -0.02,2.14 -0.3,0.3 -0.68,0.44 -1.06,0.44 z m -13.64,2.74 13.64,13.94 z m 13.64,15.45 c -0.39,0 -0.79,-0.15 -1.08,-0.46 L 697.57,553.2 c -0.59,-0.6 -0.58,-1.56 0.02,-2.14 0.6,-0.59 1.56,-0.57 2.14,0.02 l 13.64,13.93 c 0.59,0.6 0.58,1.56 -0.02,2.14 -0.3,0.3 -0.68,0.44 -1.06,0.44 z m -13.64,2.74 13.64,13.93 z m 13.64,15.45 c -0.39,0 -0.79,-0.15 -1.08,-0.46 l -13.64,-13.93 c -0.59,-0.6 -0.58,-1.56 0.02,-2.14 0.6,-0.59 1.56,-0.58 2.14,0.02 l 13.64,13.93 c 0.59,0.6 0.58,1.56 -0.02,2.14 -0.3,0.29 -0.68,0.44 -1.06,0.44 z m -13.64,2.74 13.64,13.93 z m 13.64,15.45 c -0.39,0 -0.79,-0.15 -1.08,-0.46 l -13.64,-13.93 c -0.59,-0.6 -0.58,-1.56 0.02,-2.14 0.6,-0.59 1.56,-0.57 2.14,0.02 l 13.64,13.93 c 0.59,0.6 0.58,1.56 -0.02,2.14 -0.3,0.29 -0.68,0.44 -1.06,0.44 z m 79.55,-124.58 -13.64,13.93 z m -13.64,15.45 c -0.38,0 -0.77,-0.14 -1.06,-0.43 -0.6,-0.59 -0.61,-1.55 -0.02,-2.14 l 13.64,-13.93 c 0.59,-0.6 1.54,-0.61 2.14,-0.02 0.6,0.59 0.61,1.55 0.02,2.14 l -13.64,13.93 c -0.29,0.29 -0.69,0.45 -1.08,0.45 z m 13.64,2.74 -13.64,13.93 z m -13.64,15.45 c -0.38,0 -0.77,-0.14 -1.06,-0.43 -0.6,-0.59 -0.61,-1.55 -0.02,-2.14 l 13.64,-13.93 c 0.59,-0.6 1.54,-0.61 2.14,-0.02 0.6,0.59 0.61,1.55 0.02,2.14 l -13.64,13.93 c -0.29,0.29 -0.69,0.45 -1.08,0.45 z m 13.64,2.74 -13.64,13.93 z m -13.64,15.44 c -0.38,0 -0.77,-0.14 -1.06,-0.43 -0.6,-0.59 -0.61,-1.55 -0.02,-2.14 l 13.64,-13.93 c 0.59,-0.6 1.54,-0.61 2.14,-0.02 0.6,0.59 0.61,1.55 0.02,2.14 l -13.64,13.93 c -0.29,0.3 -0.69,0.45 -1.08,0.45 z m 13.64,2.75 -13.64,13.93 z M 778.2,549.4 c -0.38,0 -0.77,-0.14 -1.06,-0.43 -0.6,-0.59 -0.61,-1.55 -0.02,-2.14 l 13.64,-13.93 c 0.59,-0.6 1.54,-0.61 2.14,-0.02 0.6,0.59 0.61,1.55 0.02,2.14 l -13.64,13.93 c -0.29,0.3 -0.69,0.45 -1.08,0.45 z m 13.64,2.74 -13.64,13.94 z m -13.64,15.45 c -0.38,0 -0.77,-0.14 -1.06,-0.43 -0.6,-0.59 -0.61,-1.55 -0.02,-2.14 l 13.64,-13.93 c 0.59,-0.6 1.54,-0.61 2.14,-0.02 0.6,0.59 0.61,1.55 0.02,2.14 l -13.64,13.93 c -0.29,0.3 -0.69,0.45 -1.08,0.45 z m 13.64,2.74 -13.64,13.93 z m -13.64,15.45 c -0.38,0 -0.77,-0.14 -1.06,-0.43 -0.6,-0.59 -0.61,-1.55 -0.02,-2.14 l 13.64,-13.93 c 0.59,-0.6 1.54,-0.61 2.14,-0.02 0.6,0.59 0.61,1.55 0.02,2.14 l -13.64,13.93 c -0.29,0.3 -0.69,0.45 -1.08,0.45 z m 13.64,2.74 -13.64,13.93 z m -13.64,15.45 c -0.38,0 -0.77,-0.14 -1.06,-0.43 -0.6,-0.59 -0.61,-1.55 -0.02,-2.14 l 13.64,-13.93 c 0.59,-0.6 1.54,-0.61 2.14,-0.02 0.6,0.59 0.61,1.55 0.02,2.14 l -13.64,13.93 c -0.29,0.3 -0.69,0.45 -1.08,0.45 z"
       fill="#7b123c"
       opacity="0.3"
       id="path343" />
    <path
       d="m 772.13,429.82 h -52.95 l -26.47,22.21 26.47,22.21 h 52.95 l 26.48,-22.21 z"
       fill="#7b123c"
       opacity="0.3"
       id="path345" />
    <path
       d="m 772.13,475.08 h -52.95 c -0.198,-10e-4 -0.389,-0.072 -0.54,-0.2 l -26.47,-22.21 c -0.094,-0.078 -0.17,-0.176 -0.222,-0.287 -0.051,-0.11 -0.078,-0.231 -0.078,-0.353 0,-0.122 0.027,-0.243 0.078,-0.353 0.052,-0.111 0.128,-0.209 0.222,-0.287 l 26.47,-22.21 c 0.15,-0.13 0.34,-0.2 0.54,-0.2 h 52.95 c 0.2,0 0.38,0.07 0.54,0.2 l 26.47,22.21 c 0.094,0.078 0.17,0.176 0.222,0.287 0.051,0.11 0.078,0.231 0.078,0.353 0,0.122 -0.027,0.243 -0.078,0.353 -0.052,0.111 -0.128,0.209 -0.222,0.287 l -26.47,22.21 c -0.15,0.13 -0.342,0.201 -0.54,0.2 z m -52.64,-1.67 h 52.34 l 25.48,-21.38 -25.48,-21.38 H 719.49 L 694,452.03 Z"
       fill="#7b123c"
       opacity="0.3"
       id="path347" />
    <path
       d="m 728.47,499.09 h 33.35 z m 0,-2.74 h 33.35 v 5.48 h -33.35 z"
       fill="#7b123c"
       opacity="0.09"
       id="path349" />
    <path
       d="M 850.47,384.36 H 748.92 L 745.89,608 h 106.1 z"
       fill="url(#e)"
       opacity="0.3"
       id="path351"
       style="fill:url(#e)" />
    <path
       d="M 851.58,384.36 H 824.02 L 823.2,608 h 28.79 z"
       fill="url(#f)"
       opacity="0.3"
       id="path353"
       style="fill:url(#f)" />
    <path
       d="M 772.1,384.36 H 746.65 L 745.89,608 h 26.59 z"
       fill="url(#g)"
       opacity="0.3"
       id="path355"
       style="fill:url(#g)" />
    <g
       fill="#7b123c"
       id="g405">
      <path
         d="M 746.02,384.01 V 608 Z m -1.52,0 h 3.03 V 608 h -3.03 z"
         opacity="0.09"
         id="path357" />
      <path
         d="M 850.6,384.01 V 608 Z m -1.51,0 h 3.03 V 608 h -3.03 z"
         opacity="0.09"
         id="path359" />
      <path
         d="M 772.17,405.33 V 608 Z m -1.51,0 h 3.03 V 608 h -3.03 z"
         opacity="0.09"
         id="path361" />
      <path
         d="M 823.71,406.98 V 608 Z m -1.52,0 h 3.03 V 608 h -3.03 z"
         opacity="0.09"
         id="path363" />
      <path
         d="m 751.34,411.42 13.64,13.93 z m 13.64,15.44 c -0.39,0 -0.79,-0.15 -1.08,-0.46 l -13.64,-13.93 c -0.59,-0.6 -0.58,-1.56 0.02,-2.14 0.6,-0.59 1.56,-0.58 2.14,0.02 l 13.64,13.93 c 0.59,0.6 0.58,1.56 -0.02,2.14 -0.29,0.3 -0.67,0.44 -1.06,0.44 z"
         opacity="0.09"
         id="path365" />
      <path
         d="m 751.34,429.61 13.64,13.93 z m 13.64,15.44 c -0.39,0 -0.79,-0.15 -1.08,-0.46 l -13.64,-13.93 c -0.59,-0.6 -0.58,-1.56 0.02,-2.14 0.6,-0.59 1.56,-0.58 2.14,0.02 l 13.64,13.93 c 0.59,0.6 0.58,1.56 -0.02,2.14 -0.29,0.3 -0.67,0.44 -1.06,0.44 z"
         opacity="0.09"
         id="path367" />
      <path
         d="m 751.34,447.79 13.64,13.94 z m 13.64,15.45 c -0.39,0 -0.79,-0.15 -1.08,-0.46 l -13.64,-13.93 c -0.59,-0.6 -0.58,-1.56 0.02,-2.14 0.6,-0.59 1.56,-0.58 2.14,0.02 l 13.64,13.93 c 0.59,0.6 0.58,1.56 -0.02,2.14 -0.29,0.3 -0.67,0.44 -1.06,0.44 z"
         opacity="0.09"
         id="path369" />
      <path
         d="m 751.34,465.98 13.64,13.93 z m 13.64,15.45 c -0.39,0 -0.79,-0.15 -1.08,-0.46 l -13.64,-13.93 c -0.59,-0.6 -0.58,-1.56 0.02,-2.14 0.6,-0.59 1.56,-0.57 2.14,0.02 l 13.64,13.93 c 0.59,0.6 0.58,1.56 -0.02,2.14 -0.29,0.3 -0.67,0.44 -1.06,0.44 z"
         opacity="0.09"
         id="path371" />
      <path
         d="m 751.34,484.17 13.64,13.93 z m 13.64,15.45 c -0.39,0 -0.79,-0.15 -1.08,-0.46 l -13.64,-13.93 c -0.59,-0.6 -0.58,-1.56 0.02,-2.14 0.6,-0.59 1.56,-0.58 2.14,0.02 l 13.64,13.93 c 0.59,0.6 0.58,1.56 -0.02,2.14 -0.29,0.29 -0.67,0.44 -1.06,0.44 z"
         opacity="0.09"
         id="path373" />
      <path
         d="m 751.34,502.36 13.64,13.93 z m 13.64,15.45 c -0.39,0 -0.79,-0.15 -1.08,-0.46 l -13.64,-13.93 c -0.59,-0.6 -0.58,-1.56 0.02,-2.14 0.6,-0.59 1.56,-0.57 2.14,0.02 l 13.64,13.93 c 0.59,0.6 0.58,1.56 -0.02,2.14 -0.29,0.29 -0.67,0.44 -1.06,0.44 z"
         opacity="0.09"
         id="path375" />
      <path
         d="m 844.54,411.42 -13.64,13.93 z m -13.64,15.44 c -0.38,0 -0.77,-0.14 -1.06,-0.43 -0.6,-0.59 -0.61,-1.55 -0.02,-2.14 l 13.64,-13.93 c 0.59,-0.6 1.54,-0.61 2.14,-0.02 0.6,0.59 0.61,1.55 0.02,2.14 l -13.64,13.93 c -0.3,0.3 -0.69,0.45 -1.08,0.45 z"
         opacity="0.09"
         id="path377" />
      <path
         d="m 844.54,429.61 -13.64,13.93 z m -13.64,15.44 c -0.38,0 -0.77,-0.14 -1.06,-0.43 -0.6,-0.59 -0.61,-1.55 -0.02,-2.14 l 13.64,-13.93 c 0.59,-0.6 1.54,-0.61 2.14,-0.02 0.6,0.59 0.61,1.55 0.02,2.14 l -13.64,13.93 c -0.3,0.3 -0.69,0.45 -1.08,0.45 z"
         opacity="0.09"
         id="path379" />
      <path
         d="m 844.54,447.79 -13.64,13.94 z m -13.64,15.45 c -0.38,0 -0.77,-0.14 -1.06,-0.43 -0.6,-0.59 -0.61,-1.55 -0.02,-2.14 l 13.64,-13.93 c 0.59,-0.6 1.54,-0.61 2.14,-0.02 0.6,0.59 0.61,1.55 0.02,2.14 l -13.64,13.93 c -0.3,0.3 -0.69,0.45 -1.08,0.45 z"
         opacity="0.09"
         id="path381" />
      <path
         d="m 844.54,465.98 -13.64,13.93 z m -13.64,15.45 c -0.38,0 -0.77,-0.14 -1.06,-0.43 -0.6,-0.59 -0.61,-1.55 -0.02,-2.14 l 13.64,-13.93 c 0.59,-0.6 1.54,-0.61 2.14,-0.02 0.6,0.59 0.61,1.55 0.02,2.14 l -13.64,13.93 c -0.3,0.3 -0.69,0.45 -1.08,0.45 z"
         opacity="0.09"
         id="path383" />
      <path
         d="M 844.54,484.17 830.9,498.1 Z m -13.64,15.45 c -0.38,0 -0.77,-0.14 -1.06,-0.43 -0.6,-0.59 -0.61,-1.55 -0.02,-2.14 l 13.64,-13.93 c 0.59,-0.6 1.54,-0.61 2.14,-0.02 0.6,0.59 0.61,1.55 0.02,2.14 l -13.64,13.93 c -0.3,0.3 -0.69,0.45 -1.08,0.45 z"
         opacity="0.09"
         id="path385" />
      <path
         d="m 844.54,502.36 -13.64,13.93 z m -13.64,15.45 c -0.38,0 -0.77,-0.14 -1.06,-0.43 -0.6,-0.59 -0.61,-1.55 -0.02,-2.14 l 13.64,-13.93 c 0.59,-0.6 1.54,-0.61 2.14,-0.02 0.6,0.59 0.61,1.55 0.02,2.14 l -13.64,13.93 c -0.3,0.29 -0.69,0.45 -1.08,0.45 z"
         opacity="0.09"
         id="path387" />
      <g
         opacity="0.3"
         id="g393">
        <path
           d="m 824.83,361.85 h -52.95 l -26.47,22.21 26.47,22.21 h 52.95 l 26.47,-22.21 z"
           opacity="0.3"
           id="path389" />
        <path
           d="m 824.83,407.1 h -52.95 c -0.198,-0.001 -0.389,-0.072 -0.54,-0.2 l -26.47,-22.21 c -0.094,-0.078 -0.17,-0.176 -0.222,-0.286 -0.051,-0.111 -0.078,-0.232 -0.078,-0.354 0,-0.122 0.027,-0.243 0.078,-0.353 0.052,-0.111 0.128,-0.209 0.222,-0.287 l 26.47,-22.21 c 0.15,-0.13 0.34,-0.2 0.54,-0.2 h 52.95 c 0.2,0 0.38,0.07 0.54,0.2 l 26.47,22.21 c 0.094,0.078 0.17,0.176 0.222,0.287 0.051,0.11 0.078,0.231 0.078,0.353 0,0.122 -0.027,0.243 -0.078,0.354 -0.052,0.11 -0.128,0.208 -0.222,0.286 l -26.47,22.21 c -0.152,0.127 -0.342,0.197 -0.54,0.2 z m -52.65,-1.66 h 52.34 L 850,384.06 824.52,362.68 h -52.34 l -25.48,21.38 z"
           opacity="0.3"
           id="path391" />
      </g>
      <path
         d="m 781.17,431.12 h 33.35 z m 0,-2.74 h 33.35 v 5.48 h -33.35 z"
         opacity="0.09"
         id="path395" />
      <path
         d="m 781.17,449.31 h 33.35 z m 0,-2.74 h 33.35 v 5.48 h -33.35 z"
         opacity="0.09"
         id="path397" />
      <path
         d="m 781.17,467.5 h 33.35 z m 0,-2.74 h 33.35 v 5.48 h -33.35 z"
         opacity="0.09"
         id="path399" />
      <path
         d="m 781.17,485.69 h 33.35 z m 0,-2.74 h 33.35 v 5.48 h -33.35 z"
         opacity="0.09"
         id="path401" />
      <path
         d="m 781.17,503.88 h 33.35 z m 0,-2.75 h 33.35 v 5.48 h -33.35 z"
         opacity="0.09"
         id="path403" />
    </g>
    <g
       opacity="0.3"
       id="g423">
      <path
         d="M 909.59,496.72 H 808.04 L 805.01,608 h 106.1 z"
         fill="url(#h)"
         opacity="0.3"
         id="path407"
         style="fill:url(#h)" />
      <path
         d="M 910.7,496.72 H 883.14 L 882.32,608 h 28.79 z"
         fill="url(#i)"
         opacity="0.3"
         id="path409"
         style="fill:url(#i)" />
      <path
         d="M 831.22,496.72 H 805.77 L 805.01,608 h 26.59 z"
         fill="url(#j)"
         opacity="0.3"
         id="path411"
         style="fill:url(#j)" />
      <g
         fill="#7b123c"
         id="g421">
        <path
           d="M 805.14,496.37 V 608 Z m -1.52,0 h 3.03 V 608 h -3.03 z m 106.1,0 V 608 Z m -1.51,0 h 3.03 V 608 h -3.03 z m -76.92,21.32 V 608 Z m -1.51,0 h 3.03 V 608 h -3.03 z m 53.05,1.65 V 608 Z m -1.52,0 h 3.03 V 608 h -3.03 z m -70.85,4.44 13.64,13.93 z m 13.65,15.45 c -0.39,0 -0.79,-0.15 -1.08,-0.46 l -13.64,-13.93 c -0.59,-0.6 -0.58,-1.56 0.02,-2.14 0.6,-0.59 1.56,-0.58 2.14,0.02 l 13.64,13.93 c 0.59,0.6 0.58,1.56 -0.02,2.14 -0.3,0.29 -0.68,0.44 -1.06,0.44 z m -13.65,2.74 13.64,13.93 z m 13.65,15.45 c -0.39,0 -0.79,-0.15 -1.08,-0.46 l -13.64,-13.93 c -0.59,-0.6 -0.58,-1.56 0.02,-2.14 0.6,-0.59 1.56,-0.57 2.14,0.02 l 13.64,13.93 c 0.59,0.6 0.58,1.56 -0.02,2.14 -0.3,0.29 -0.68,0.44 -1.06,0.44 z m -13.65,2.74 13.64,13.93 z m 13.65,15.44 c -0.39,0 -0.79,-0.15 -1.08,-0.46 l -13.64,-13.93 c -0.59,-0.6 -0.58,-1.56 0.02,-2.14 0.6,-0.59 1.56,-0.58 2.14,0.02 l 13.64,13.93 c 0.59,0.6 0.58,1.56 -0.02,2.14 -0.3,0.3 -0.68,0.44 -1.06,0.44 z m -13.65,2.75 13.64,13.93 z m 13.65,15.44 c -0.39,0 -0.79,-0.15 -1.08,-0.46 L 809.39,579.4 c -0.59,-0.6 -0.58,-1.56 0.02,-2.14 0.6,-0.59 1.56,-0.57 2.14,0.02 l 13.64,13.93 c 0.59,0.6 0.58,1.56 -0.02,2.14 -0.3,0.3 -0.68,0.44 -1.06,0.44 z m 79.55,-70.01 -13.64,13.93 z m -13.64,15.45 c -0.38,0 -0.77,-0.14 -1.06,-0.43 -0.6,-0.59 -0.61,-1.55 -0.02,-2.14 l 13.64,-13.93 c 0.59,-0.6 1.54,-0.61 2.14,-0.02 0.6,0.59 0.61,1.55 0.02,2.14 l -13.64,13.93 c -0.3,0.3 -0.69,0.45 -1.08,0.45 z"
           opacity="0.3"
           id="path413" />
        <g
           opacity="0.3"
           id="g419">
          <path
             d="M 883.95,474.21 H 831 l -26.47,22.21 26.47,22.21 h 52.95 l 26.47,-22.21 z"
             opacity="0.3"
             id="path415" />
          <path
             d="M 883.95,519.47 H 831 c -0.198,-10e-4 -0.389,-0.072 -0.54,-0.2 l -26.47,-22.21 c -0.094,-0.078 -0.17,-0.176 -0.222,-0.287 -0.051,-0.11 -0.078,-0.231 -0.078,-0.353 0,-0.122 0.027,-0.243 0.078,-0.354 0.052,-0.11 0.128,-0.208 0.222,-0.286 l 26.47,-22.21 c 0.15,-0.13 0.34,-0.2 0.54,-0.2 h 52.95 c 0.2,0 0.38,0.07 0.54,0.2 l 26.47,22.21 c 0.094,0.078 0.17,0.176 0.222,0.286 0.051,0.111 0.078,0.232 0.078,0.354 0,0.122 -0.027,0.243 -0.078,0.353 -0.052,0.111 -0.128,0.209 -0.222,0.287 l -26.47,22.21 c -0.152,0.127 -0.342,0.197 -0.54,0.2 z M 831.3,517.8 h 52.34 l 25.48,-21.38 -25.48,-21.38 H 831.3 l -25.48,21.38 z"
             opacity="0.3"
             id="path417" />
        </g>
      </g>
    </g>
  </g>
  <g
     opacity="0.3"
     id="g445">
    <path
       d="m 557.3,346.17 v -39.01 l 52.49,-40.94 51.18,40.94 v 40.58 z"
       fill="#e99c56"
       opacity="0.3"
       id="path427" />
    <path
       d="M 660.97,347.78 H 557.3 l -3.05,237.83 h 111.29 z"
       fill="#c73b3d"
       opacity="0.3"
       id="path429" />
    <path
       d="M 660.97,347.78 H 557.3 l 1.53,39.64 h 102.14 z"
       fill="#430632"
       opacity="0.3"
       id="path431" />
    <path
       d="M 598.46,347.78 H 557.3 l 0.61,39.64 h 40.55 z"
       fill="url(#k)"
       opacity="0.3"
       id="path433"
       style="fill:url(#k)" />
    <path
       d="M 577.36,347.78 H 557.3 l 0.3,39.64 h 19.76 z"
       fill="url(#l)"
       opacity="0.3"
       id="path435"
       style="fill:url(#l)" />
    <path
       d="m 598.46,465.17 h 67.08 v 120.44 h -67.08 z"
       fill="#e99c56"
       opacity="0.3"
       id="path437" />
    <path
       d="m 662.49,427.06 h -21.34 v 120.43 h 24.39 z"
       fill="url(#m)"
       opacity="0.3"
       id="path439"
       style="fill:url(#m)" />
    <path
       d="m 663.88,505.88 h -22.73 v 41.61 h 24.39 z"
       fill="url(#n)"
       opacity="0.3"
       id="path441"
       style="fill:url(#n)" />
    <path
       d="m 663.17,305.98 c -0.01,-0.69 -0.35,-1.35 -0.89,-1.76 L 611.13,263.3 c -0.37,-0.31 -0.83,-0.47 -1.29,-0.49 -0.133,-0.01 -0.267,-0.01 -0.4,0 -0.46,0.01 -0.92,0.18 -1.29,0.49 L 557,304.22 c -0.54,0.42 -0.87,1.07 -0.89,1.76 l -5.11,301.94 4.58,0.08 0.36,-20.99 h 19.13 v 20.95 h 4.58 v -20.95 h 16.69 v 20.95 h 4.56 v -20.95 h 17.49 v 20.95 h 4.56 v -20.95 h 16.69 v 20.95 h 4.58 v -20.95 h 19.13 l 0.36,20.99 4.56,-0.08 z M 662.6,542.8 H 644.22 V 507.73 H 662 Z M 644.22,503.17 V 468.1 h 17.12 l 0.6,35.07 z m 17.04,-39.65 h -17.03 v -35.05 h 16.44 z m -0.68,-39.63 h -16.36 v -35.07 h 15.77 z m -0.67,-39.64 H 644.22 V 349.2 h 15.09 z m -0.67,-39.64 H 644.22 V 332.37 L 658.7,312.8 Z m -84.17,237.82 h -19.06 l 0.6,-35.05 h 18.46 z m 0,-39.63 h -18.38 l 0.6,-35.07 h 17.78 z m 0,-39.63 h -17.71 l 0.6,-35.07 h 17.12 v 35.07 z m 0,-39.65 h -17.03 l 0.6,-35.05 h 16.44 v 35.05 z m 0,-39.63 h -16.35 l 0.58,-35.07 h 15.77 z m 0,-39.64 h -15.69 l 0.6,-35.05 h 15.09 z m 0,-39.64 h -15.02 l 0.54,-31.81 14.48,19.57 z m 1.03,-18.53 -14.54,-19.64 41.93,-33.54 z m 20.24,256.35 h -16.69 v -35.05 h 16.69 z m 0,-39.63 h -16.69 v -35.07 h 16.69 z m 0,-39.63 H 579.65 V 468.1 h 16.69 z m 0,-39.65 h -16.69 v -35.05 h 16.69 z m 0,-39.63 h -16.69 v -35.07 h 16.69 z m 0,-39.64 H 579.65 V 349.2 h 16.69 z m 0,-39.64 h -16.69 v -11.89 l 16.69,-13.26 z m -14.7,-19.32 25.66,-49.79 v 29.42 z m 36.75,257.14 H 600.9 v -35.05 h 17.49 z m 0,-39.63 H 600.9 v -35.07 h 17.49 z m 0,-39.63 H 600.9 V 468.1 h 17.49 z m 0,-39.65 H 600.9 v -35.05 h 17.49 z m 0,-39.63 H 600.9 v -35.07 h 17.49 z m 0,-39.64 H 600.9 V 349.2 h 17.49 z m 0,-39.64 H 600.9 v -28.77 l 8.75,-6.95 8.74,6.95 z m -6.41,-39.68 V 275.5 l 25.66,49.79 z m 27.66,277.5 h -16.69 v -35.05 h 16.69 z m 0,-39.63 h -16.69 v -35.07 h 16.69 z m 0,-39.63 H 622.95 V 468.1 h 16.69 z m 0,-39.65 h -16.69 v -35.05 h 16.69 z m 0,-39.63 h -16.69 v -35.07 h 16.69 z m 0,-39.64 H 622.95 V 349.2 h 16.69 z m 0,-39.64 h -16.69 v -25.15 l 16.69,13.26 z m 3.55,-18.53 -27.4,-53.19 41.93,33.54 z m 1.03,256.35 v -35.05 h 18.46 l 0.6,35.05 z"
       fill="#7b123c"
       opacity="0.3"
       id="path443" />
  </g>
  <g
     opacity="0.3"
     id="g497">
    <path
       d="m 942.99,333.32 h 83.23 v 11.1 h -83.23 z"
       fill="#e99c56"
       opacity="0.3"
       id="path447" />
    <path
       d="m 1028.09,323.4 v 18.95 c 0,1.28 -1.03,2.3 -2.3,2.3 -1.28,0 -2.3,-1.03 -2.3,-2.3 v -6.13 h -22.83 v 7.19 h -4.61 v -7.19 h -25.91 v 7.19 h -4.61 v -7.19 h -21.82 v 6.13 c 0,1.28 -1.03,2.3 -2.3,2.3 -1.26,0 -2.3,-1.03 -2.3,-2.3 V 323.4 c 0,-0.61 0.242,-1.195 0.674,-1.626 0.431,-0.432 1.016,-0.674 1.626,-0.674 0.61,0 1.195,0.242 1.626,0.674 0.432,0.431 0.674,1.016 0.674,1.626 v 8.21 h 79.78 v -8.21 c 0,-0.61 0.24,-1.195 0.67,-1.626 0.44,-0.432 1.02,-0.674 1.63,-0.674 0.61,0 1.2,0.242 1.63,0.674 0.43,0.431 0.67,1.016 0.67,1.626 z"
       fill="#c73b3d"
       opacity="0.3"
       id="path449" />
    <path
       d="M 1031.93,343.35 V 605.7 c 0,1.26 -1.04,2.3 -2.3,2.3 h -92.05 c -0.61,0 -1.195,-0.242 -1.626,-0.674 -0.432,-0.431 -0.674,-1.016 -0.674,-1.626 V 343.35 c 0,-1.28 1.03,-2.3 2.3,-2.3 h 92.05 c 0.61,0 1.2,0.242 1.63,0.674 0.43,0.431 0.67,1.016 0.67,1.626 z m -47.64,-96.51 v 12.27 z m 0,14.57 c -0.61,0 -1.195,-0.242 -1.626,-0.674 -0.432,-0.431 -0.674,-1.016 -0.674,-1.626 v -12.27 c 0,-0.61 0.242,-1.195 0.674,-1.626 0.431,-0.432 1.016,-0.674 1.626,-0.674 0.61,0 1.195,0.242 1.626,0.674 0.432,0.431 0.674,1.016 0.674,1.626 v 12.27 c 0,0.61 -0.242,1.195 -0.674,1.626 -0.431,0.432 -1.016,0.674 -1.626,0.674 z"
       fill="#c73b3d"
       opacity="0.3"
       id="path451" />
    <path
       d="M 1031.92,343.35 V 605.7 c 0,1.26 -1.03,2.29 -2.29,2.29 H 982.91 V 341.06 h 46.72 c 1.26,0 2.29,1.03 2.29,2.29 z"
       fill="#a52d36"
       opacity="0.3"
       id="path453" />
    <path
       d="m 946.39,352.99 h 6.47 v 6.47 h -6.47 z m 11.32,0 h 6.47 v 6.47 h -6.47 z m 11.33,0 h 6.47 v 6.47 h -6.47 z m 11.32,0 h 6.47 v 6.47 h -6.47 z m 11.32,0 h 6.47 v 6.47 h -6.47 z m 11.33,0 h 6.47 v 6.47 h -6.47 z m 11.32,0 h 6.47 v 6.47 h -6.47 z m -67.94,12.27 h 6.47 v 6.47 h -6.47 z m 11.32,0 h 6.47 v 6.47 h -6.47 z m 11.33,0 h 6.47 v 6.47 h -6.47 z m 22.64,0 h 6.47 v 6.47 h -6.47 z m 11.33,0 h 6.47 v 6.47 h -6.47 z m 11.32,0 h 6.47 v 6.47 h -6.47 z m -67.94,12.27 h 6.47 V 384 h -6.47 z m 11.32,0 h 6.47 V 384 h -6.47 z m 11.33,0 h 6.47 V 384 h -6.47 z m 22.64,0 h 6.47 V 384 h -6.47 z m 11.33,0 h 6.47 V 384 h -6.47 z m 11.32,0 h 6.47 V 384 h -6.47 z"
       fill="#5e1b51"
       opacity="0.3"
       id="path455" />
    <g
       opacity="0.3"
       id="g465">
      <path
         d="m 946.39,389.81 h 6.47 v 6.47 h -6.47 z m 11.32,0 h 6.47 v 6.47 h -6.47 z m 11.33,0 h 6.47 v 6.47 h -6.47 z"
         fill="#5e1b51"
         opacity="0.3"
         id="path457" />
      <path
         d="m 991.68,389.81 h 6.47 v 6.47 h -6.47 z"
         fill="#e99c56"
         opacity="0.3"
         id="path459" />
      <path
         d="m 1003.01,389.81 h 6.47 v 6.47 h -6.47 z"
         fill="url(#o)"
         opacity="0.3"
         id="path461"
         style="fill:url(#o)" />
      <path
         d="m 1014.33,389.81 h 6.47 v 6.47 h -6.47 z"
         fill="#e99c56"
         opacity="0.3"
         id="path463" />
    </g>
    <g
       fill="#5e1b51"
       id="g475">
      <path
         d="m 946.39,402.08 h 6.47 v 6.47 h -6.47 z m 11.32,0 h 6.47 v 6.47 h -6.47 z m 11.33,0 h 6.47 v 6.47 h -6.47 z m 22.64,0 h 6.47 v 6.47 h -6.47 z m 11.33,0 h 6.47 v 6.47 h -6.47 z m 11.32,0 h 6.47 v 6.47 h -6.47 z"
         opacity="0.09"
         id="path467" />
      <path
         d="m 946.39,414.35 h 6.47 v 6.47 h -6.47 z m 11.32,0 h 6.47 v 6.47 h -6.47 z m 11.33,0 h 6.47 v 6.47 h -6.47 z m 22.64,0 h 6.47 v 6.47 h -6.47 z m 11.33,0 h 6.47 v 6.47 h -6.47 z m 11.32,0 h 6.47 v 6.47 h -6.47 z"
         opacity="0.09"
         id="path469" />
      <path
         d="m 946.39,426.63 h 6.47 v 6.47 h -6.47 z m 11.32,0 h 6.47 v 6.47 h -6.47 z m 11.33,0 h 6.47 v 6.47 h -6.47 z m 22.64,0 h 6.47 v 6.47 h -6.47 z m 11.33,0 h 6.47 v 6.47 h -6.47 z m 11.32,0 h 6.47 v 6.47 h -6.47 z"
         opacity="0.09"
         id="path471" />
      <path
         d="m 946.39,438.9 h 6.47 v 6.47 h -6.47 z m 11.32,0 h 6.47 v 6.47 h -6.47 z m 11.33,0 h 6.47 v 6.47 h -6.47 z m 22.64,0 h 6.47 v 6.47 h -6.47 z m 11.33,0 h 6.47 v 6.47 h -6.47 z m 11.32,0 h 6.47 v 6.47 h -6.47 z"
         opacity="0.09"
         id="path473" />
    </g>
    <g
       opacity="0.3"
       id="g485">
      <path
         d="m 946.39,451.17 h 6.47 v 6.47 h -6.47 z"
         fill="#e99c56"
         opacity="0.3"
         id="path477" />
      <path
         d="m 957.71,451.17 h 6.47 v 6.47 h -6.47 z"
         fill="url(#p)"
         opacity="0.3"
         id="path479"
         style="fill:url(#p)" />
      <path
         d="m 969.04,451.17 h 6.47 v 6.47 h -6.47 z"
         fill="#e99c56"
         opacity="0.3"
         id="path481" />
      <path
         d="m 991.68,451.17 h 6.47 v 6.47 h -6.47 z m 11.33,0 h 6.47 v 6.47 h -6.47 z m 11.32,0 h 6.47 v 6.47 h -6.47 z"
         fill="#5e1b51"
         opacity="0.3"
         id="path483" />
    </g>
    <path
       d="m 946.39,463.45 h 6.47 v 6.47 h -6.47 z m 11.32,0 h 6.47 v 6.47 h -6.47 z m 11.33,0 h 6.47 v 6.47 h -6.47 z m 22.64,0 h 6.47 v 6.47 h -6.47 z m 11.33,0 h 6.47 v 6.47 h -6.47 z m 11.32,0 h 6.47 v 6.47 h -6.47 z"
       fill="#5e1b51"
       opacity="0.09"
       id="path487" />
    <path
       d="m 946.39,475.72 h 6.47 v 6.47 h -6.47 z m 11.32,0 h 6.47 v 6.47 h -6.47 z m 11.33,0 h 6.47 v 6.47 h -6.47 z m 22.64,0 h 6.47 v 6.47 h -6.47 z m 11.33,0 h 6.47 v 6.47 h -6.47 z m 11.32,0 h 6.47 v 6.47 h -6.47 z"
       fill="#5e1b51"
       opacity="0.09"
       id="path489" />
    <path
       d="m 946.39,488 h 6.47 v 6.47 h -6.47 z m 11.32,0 h 6.47 v 6.47 h -6.47 z m 11.33,0 h 6.47 v 6.47 h -6.47 z m 22.64,0 h 6.47 v 6.47 h -6.47 z m 11.33,0 h 6.47 v 6.47 h -6.47 z m 11.32,0 h 6.47 v 6.47 h -6.47 z"
       fill="#5e1b51"
       opacity="0.09"
       id="path491" />
    <path
       d="m 946.39,500.27 h 6.47 v 6.47 h -6.47 z m 11.32,0 h 6.47 v 6.47 h -6.47 z m 11.33,0 h 6.47 v 6.47 h -6.47 z m 22.64,0 h 6.47 v 6.47 h -6.47 z m 11.33,0 h 6.47 v 6.47 h -6.47 z m 11.32,0 h 6.47 v 6.47 h -6.47 z"
       fill="#5e1b51"
       opacity="0.09"
       id="path493" />
    <path
       d="m 1024.69,330.88 c -0.42,0.69 -1.17,1.11 -1.97,1.11 h -78.25 c -0.8,0 -1.55,-0.43 -1.97,-1.12 -0.42,-0.69 -0.43,-1.57 -0.06,-2.27 l 39.78,-73.65 c 0.42,-0.78 1.29,-1.25 2.08,-1.21 0.83,-0.01 1.68,0.44 2.1,1.25 l 38.36,73.63 c 0.37,0.72 0.35,1.57 -0.07,2.26 z"
       fill="#7b123c"
       opacity="0.09"
       id="path495" />
  </g>
  <path
     d="m 668.88,145.68 c 1.557,0 2.82,-1.263 2.82,-2.82 0,-1.557 -1.263,-2.82 -2.82,-2.82 -1.557,0 -2.82,1.263 -2.82,2.82 0,1.557 1.263,2.82 2.82,2.82 z"
     fill="#e99c56"
     opacity="0.3"
     id="path499" />
  <path
     d="m 668.45,157.28 c 4.645,0 8.41,-3.765 8.41,-8.41 0,-4.645 -3.765,-8.41 -8.41,-8.41 -4.645,0 -8.41,3.765 -8.41,8.41 0,4.645 3.765,8.41 8.41,8.41 z"
     fill="#420f3b"
     opacity="0.3"
     id="path501" />
  <path
     d="m 1025.19,138.6 h -82.44 c 0,-10.27 8.33,-18.6 18.6,-18.6 2.5,0 4.88,0.5 7.05,1.39 5.56,-8.31 15.03,-13.79 25.78,-13.79 17.13,0 31.01,13.88 31.01,31 z M 571.07,64.04 H 459.27 C 459.27,40.82 478.1,22 501.31,22 c 14.59,0 27.44,7.42 34.97,18.7 2.95,-1.22 6.18,-1.89 9.55,-1.89 13.95,0.01 25.24,11.3 25.24,25.23 z"
     fill="#54184b"
     opacity="0.3"
     id="path503" />
  <path
     d="m 765.35,48.44 c 1.557,0 2.82,-1.2626 2.82,-2.82 0,-1.5575 -1.263,-2.82 -2.82,-2.82 -1.557,0 -2.82,1.2625 -2.82,2.82 0,1.5574 1.263,2.82 2.82,2.82 z"
     style="opacity:0.3;fill:#e99c56;stroke:#e99c56;stroke-width:8.088;stroke-linecap:round;stroke-linejoin:round;stroke-miterlimit:10"
     id="path505" />
  <path
     d="m 991.83,244.17 c 1.557,0 2.82,-1.263 2.82,-2.82 0,-1.557 -1.263,-2.82 -2.82,-2.82 -1.557,0 -2.82,1.263 -2.82,2.82 0,1.557 1.263,2.82 2.82,2.82 z"
     fill="#66225c"
     opacity="0.3"
     id="path507" />
  <path
     d="m 564.65,146.2 c 0,0.93 -0.76,1.69 -1.69,1.69 h -5.08 v 5.08 c 0,0.93 -0.76,1.69 -1.69,1.69 -0.94,0 -1.69,-0.77 -1.69,-1.69 v -5.08 h -5.08 c -0.94,0 -1.69,-0.77 -1.69,-1.69 0,-0.94 0.76,-1.69 1.69,-1.69 h 5.08 v -5.08 c 0,-0.94 0.76,-1.69 1.69,-1.69 0.94,0 1.69,0.76 1.69,1.69 v 5.08 h 5.08 c 0.94,-0.01 1.69,0.75 1.69,1.69 z"
     fill="#c73b3d"
     opacity="0.3"
     id="path509" />
  <path
     d="m 963.64,178 c 1.557,0 2.82,-1.263 2.82,-2.82 0,-1.557 -1.263,-2.82 -2.82,-2.82 -1.557,0 -2.82,1.263 -2.82,2.82 0,1.557 1.263,2.82 2.82,2.82 z"
     fill="#66225c"
     opacity="0.3"
     id="path511" />
  <path
     d="m 725.1,253.23 c 0,0.93 -0.76,1.69 -1.69,1.69 h -5.08 V 260 c 0,0.93 -0.76,1.69 -1.69,1.69 -0.94,0 -1.69,-0.77 -1.69,-1.69 v -5.08 h -5.08 c -0.94,0 -1.69,-0.77 -1.69,-1.69 0,-0.94 0.76,-1.69 1.69,-1.69 h 5.08 v -5.08 c 0,-0.94 0.76,-1.69 1.69,-1.69 0.94,0 1.69,0.76 1.69,1.69 v 5.08 h 5.08 c 0.93,0 1.69,0.76 1.69,1.69 z"
     fill="#c73b3d"
     opacity="0.3"
     id="path513" />
  <g
     fill="#e99d56"
     id="g561"
     style="display:none">
    <path
       d="m 796.011,378.834 h -7.124 v 6.424 h 7.124 z"
       id="path515" />
    <path
       d="m 784.674,378.766 h -7.124 v 9.535 c -1.072,-0.27 -2.068,-0.338 -3.141,-0.338 -7.43,0 -12.256,4.125 -12.256,10.482 0,6.627 4.52,10.008 13.252,10.008 3.141,0 6.205,-0.271 9.269,-0.812 z m -7.124,24.548 c -0.843,0.135 -1.609,0.135 -2.451,0.135 -3.677,0 -5.669,-1.826 -5.669,-5.14 0,-3.313 2.069,-5.342 5.669,-5.342 0.842,0 1.608,0.068 2.374,0.338 z"
       id="path517" />
    <path
       d="m 788.887,400.676 c 0,5.41 -0.306,7.506 -1.379,9.265 -1.072,1.758 -2.528,2.907 -5.668,4.192 l 6.587,2.773 c 3.141,-1.353 4.673,-2.638 5.822,-4.599 1.149,-1.961 1.685,-4.463 1.685,-9.467 v -14.404 h -7.124 z"
       id="path519" />
    <path
       d="m 809.723,387.963 c -3.294,0 -6.512,0.609 -9.422,1.894 v 4.801 c 2.604,-1.217 5.438,-1.826 8.349,-1.894 1.762,0 2.451,0.406 2.451,1.556 v 1.352 c -8.732,0.676 -12.332,2.637 -12.332,7.033 0,4.057 2.681,5.883 8.656,5.883 3.37,0 6.817,-0.27 10.187,-0.676 v -12.713 c 0,-2.57 -0.153,-3.787 -0.766,-4.734 -1.072,-1.623 -3.447,-2.502 -7.123,-2.502 z m 1.761,15.959 c -1.149,0.203 -2.298,0.271 -3.447,0.271 -1.915,0 -2.834,-0.541 -2.834,-1.759 0,-1.623 1.532,-2.299 6.281,-2.704 z"
       id="path521" />
    <path
       d="m 880.732,408.791 c 7.2,0 11.796,-4.057 11.796,-10.617 0,-6.356 -4.366,-10.279 -11.49,-10.279 -7.277,0 -11.796,4.058 -11.796,10.617 0,6.357 4.366,10.279 11.49,10.279 z m 0.23,-15.891 c 2.757,0 4.289,2.028 4.289,5.409 0,3.382 -1.608,5.41 -4.366,5.41 -2.758,0 -4.366,-1.961 -4.366,-5.41 0,-3.448 1.608,-5.409 4.443,-5.409 z"
       id="path523" />
    <path
       d="m 870.008,388.91 c -3.064,-0.609 -6.205,-0.879 -9.269,-0.879 -10.418,0 -16.316,3.989 -16.316,11.09 0,5.68 3.983,9.332 10.188,9.332 1.609,0.067 3.141,-0.271 4.596,-0.879 v 0.135 c 0,3.99 -1.992,5.613 -6.664,5.613 -2.681,0 -5.286,-0.541 -7.66,-1.623 v 5.748 c 2.451,0.811 5.055,1.217 7.66,1.217 3.753,0 6.741,-0.744 8.962,-2.164 0.383,-0.203 0.766,-0.473 1.072,-0.744 0.613,-0.473 1.073,-1.014 1.532,-1.623 1.532,-2.096 2.069,-4.598 2.069,-9.94 v -1.691 c -0.077,-0.879 -0.077,-1.691 -0.077,-2.57 l -0.077,-3.381 -0.076,-2.637 v -0.676 c 1.455,0.135 -0.307,-0.136 1.608,0.135 z m -10.724,13.66 v 0.473 c -0.843,0.271 -1.762,0.406 -2.681,0.406 -3.141,0 -4.903,-1.758 -4.903,-4.869 0,-2.164 0.919,-3.719 2.604,-4.598 1.226,-0.609 2.682,-0.947 4.137,-0.88 h 0.766 v 0.474 l 0.077,2.029 0.076,2.84 c 0,0.879 0.077,1.69 0.077,2.366 z"
       id="path525" />
    <path
       d="m 832.32,387.963 c -3.754,0.068 -7.584,0.541 -11.184,1.42 v 18.867 h 7.124 v -14.809 c 1.072,-0.271 2.145,-0.474 3.294,-0.474 2.528,0 3.447,0.879 3.447,3.314 v 11.969 h 7.124 v -12.24 c 0,-3.11 -0.46,-4.598 -1.915,-5.883 -1.456,-1.285 -4.213,-2.164 -7.89,-2.164 z"
       id="path527" />
    <path
       d="m 939.562,398.512 c 0,-6.356 -4.367,-10.278 -11.491,-10.278 -7.277,0 -11.796,4.057 -11.796,10.616 0,6.289 4.366,10.279 11.567,10.279 7.2,0 11.72,-4.057 11.72,-10.617 z m -16.01,0.203 c 0,-3.449 1.609,-5.41 4.443,-5.41 2.834,0 4.29,2.029 4.29,5.41 0,3.381 -1.609,5.41 -4.367,5.41 -2.757,0 -4.366,-1.961 -4.366,-5.41 z"
       id="path529" />
    <path
       d="m 955.571,396.619 v 11.969 h 7.124 v -12.172 c 0,-3.111 -0.459,-4.598 -1.915,-5.883 -1.455,-1.285 -4.213,-2.164 -7.89,-2.164 -3.753,0.067 -7.583,0.541 -11.184,1.42 v 18.867 h 7.124 v -14.877 c 1.073,-0.271 2.145,-0.474 3.294,-0.406 2.528,0 3.447,0.879 3.447,3.246 z"
       id="path531" />
    <path
       d="m 985.063,408.115 c 0.996,-0.947 1.379,-1.961 1.379,-4.125 v -8.521 h -4.98 v 8.318 c 0,1.69 -0.612,2.299 -2.374,2.299 -0.766,0 -1.532,-0.135 -2.298,-0.338 v -10.279 h -4.903 v 13.119 c 2.528,0.609 5.133,0.947 7.814,0.947 2.451,0.067 4.289,-0.406 5.362,-1.42 z"
       id="path533" />
    <path
       d="m 898.35,406.221 c 2.298,1.894 6.511,2.57 9.346,2.502 2.221,0 4.442,-0.473 6.434,-1.42 v -5.004 c -1.532,0.676 -3.217,1.082 -4.902,1.082 -2.758,0 -7.124,-0.947 -7.124,-5.274 0,-4.328 4.366,-5.275 7.124,-5.275 1.685,0 3.293,0.473 4.749,1.217 v -5.072 c -1.915,-0.811 -4.06,-1.217 -6.205,-1.217 -2.834,0 -6.741,0.744 -9.039,2.705 -2.451,1.961 -3.907,4.734 -3.907,7.642 -0.229,3.11 1.073,6.018 3.524,8.114 z"
       id="path535" />
    <path
       d="m 994.025,400.609 c -1.149,-0.474 -1.072,-1.015 -1.072,-1.015 0,0 0,-0.879 1.991,-0.879 1.456,0 2.835,0.338 4.137,0.879 v -3.313 c -1.532,-0.676 -3.294,-0.947 -5.056,-0.812 -5.745,0.203 -5.668,4.058 -5.668,4.058 -0.154,1.014 0.306,2.028 1.072,2.84 1.226,0.879 2.604,1.555 4.06,2.028 1.072,0.339 1.455,0.812 1.455,1.015 0,0.203 0.153,0.947 -1.991,0.947 -1.609,-0.068 -3.141,-0.474 -4.596,-1.082 v 3.448 c 2.144,0.744 4.519,1.015 6.74,0.744 2.145,-0.338 4.29,-0.947 4.52,-3.99 0.23,-3.043 -3.141,-3.854 -5.592,-4.868 z"
       id="path537" />
    <path
       d="m 970.126,403.652 h -5.669 v 5.004 h 5.669 z"
       id="path539" />
    <path
       d="m 800.913,385.123 c -0.076,-0.068 -0.153,-0.203 -0.153,-0.338 v -1.42 c 0,-0.406 0.153,-0.744 0.613,-1.015 l 2.375,-2.096 c 1.378,-0.947 2.451,-1.69 3.14,-2.231 0.69,-0.541 1.226,-1.015 1.609,-1.421 0.383,-0.405 0.536,-0.811 0.536,-1.217 0,-1.082 -0.613,-1.623 -1.762,-1.623 -0.612,0 -1.149,0.136 -1.455,0.474 -0.306,0.338 -0.536,0.744 -0.69,1.217 -0.076,0.338 -0.383,0.473 -0.766,0.473 h -2.91 c -0.154,0 -0.23,-0.067 -0.383,-0.135 -0.154,-0.068 -0.154,-0.203 -0.154,-0.338 0,-0.879 0.307,-1.691 0.843,-2.367 0.536,-0.744 1.226,-1.285 2.221,-1.758 0.996,-0.473 1.992,-0.609 3.218,-0.609 1.302,0 2.374,0.203 3.294,0.541 0.919,0.338 1.608,0.879 2.068,1.556 0.459,0.676 0.689,1.42 0.689,2.299 0,0.946 -0.306,1.826 -0.996,2.569 -0.689,0.812 -1.685,1.623 -3.064,2.502 l -1.991,2.029 h 5.898 c 0.153,0 0.306,0.068 0.46,0.135 0.076,0.068 0.153,0.203 0.153,0.339 v 2.028 c 0,0.135 -0.077,0.271 -0.153,0.338 -0.077,0.068 -0.23,0.203 -0.46,0.203 h -11.72 c -0.23,0 -0.306,-0.067 -0.46,-0.135 z"
       id="path541" />
    <path
       d="m 817.689,383.973 c -1.072,-0.946 -1.685,-2.299 -1.762,-3.854 0,-0.744 -0.076,-1.353 -0.076,-1.961 0,-0.609 0,-1.217 0.076,-2.029 0.077,-1.014 0.307,-1.893 0.843,-2.705 0.459,-0.811 1.226,-1.42 2.221,-1.893 0.996,-0.474 2.145,-0.676 3.524,-0.676 2.068,0 3.677,0.54 4.749,1.487 1.149,0.947 1.685,2.232 1.839,3.787 0,0.744 0.076,1.42 0.076,2.029 0,0.541 0,1.217 -0.076,1.961 -0.077,1.623 -0.69,2.908 -1.762,3.854 -1.073,1.015 -2.681,1.488 -4.826,1.488 -2.068,0 -3.677,-0.473 -4.826,-1.488 z m 6.511,-2.096 c 0.383,-0.406 0.613,-1.082 0.613,-1.826 0,-0.406 0.077,-1.014 0.077,-1.893 0,-0.879 0,-1.488 -0.077,-1.826 0,-0.744 -0.23,-1.352 -0.613,-1.826 -0.383,-0.473 -0.919,-0.744 -1.685,-0.744 -0.766,0 -1.302,0.271 -1.685,0.677 -0.383,0.405 -0.613,1.081 -0.613,1.825 v 1.826 1.894 c 0.077,1.69 0.843,2.502 2.298,2.502 0.766,0.067 1.302,-0.203 1.685,-0.609 z"
       id="path543" />
    <path
       d="m 831.477,385.123 c -0.076,-0.068 -0.153,-0.203 -0.153,-0.338 v -1.42 c 0,-0.406 0.153,-0.744 0.613,-1.015 l 2.375,-2.096 c 1.378,-0.947 2.451,-1.69 3.14,-2.231 0.69,-0.541 1.226,-1.015 1.609,-1.421 0.383,-0.405 0.536,-0.811 0.536,-1.217 0,-1.082 -0.613,-1.623 -1.762,-1.623 -0.613,0 -1.149,0.136 -1.455,0.474 -0.307,0.338 -0.536,0.744 -0.69,1.217 -0.076,0.338 -0.383,0.473 -0.766,0.473 h -2.91 c -0.154,0 -0.23,-0.067 -0.383,-0.135 -0.154,-0.068 -0.154,-0.203 -0.154,-0.338 0,-0.879 0.307,-1.691 0.843,-2.367 0.536,-0.744 1.226,-1.285 2.221,-1.758 0.996,-0.473 1.992,-0.609 3.218,-0.609 1.302,0 2.374,0.203 3.293,0.541 0.92,0.338 1.609,0.879 2.069,1.556 0.459,0.676 0.689,1.42 0.689,2.299 0,0.946 -0.306,1.826 -0.996,2.569 -0.689,0.812 -1.685,1.623 -3.064,2.502 l -2.145,1.894 h 5.899 c 0.153,0 0.306,0.068 0.459,0.135 0.077,0.068 0.153,0.203 0.153,0.338 v 2.029 c 0,0.135 -0.076,0.27 -0.153,0.338 -0.076,0.068 -0.23,0.135 -0.459,0.135 h -11.567 c -0.23,0.203 -0.307,0.136 -0.46,0.068 z"
       id="path545" />
    <path
       d="m 851.24,385.123 c -0.153,-0.135 -0.153,-0.203 -0.153,-0.338 v -9.67 l -3.14,2.164 c -0.077,0.067 -0.23,0.135 -0.383,0.135 -0.154,0 -0.307,-0.068 -0.46,-0.271 l -1.379,-1.555 c -0.076,-0.135 -0.076,-0.203 -0.076,-0.338 0,-0.203 0.076,-0.338 0.306,-0.406 l 5.285,-3.584 c 0.154,-0.067 0.383,-0.135 0.537,-0.135 h 2.911 c 0.153,0 0.306,0.068 0.383,0.135 0.076,0.068 0.153,0.203 0.153,0.338 v 13.187 c 0,0.135 -0.077,0.27 -0.153,0.338 -0.077,0.068 -0.23,0.135 -0.383,0.135 H 851.7 c -0.153,0 -0.306,-0.067 -0.46,-0.135 z"
       id="path547" />
    <path
       d="m 919.186,427.793 c -1.226,-0.947 -1.839,-2.232 -1.992,-3.922 0,-0.203 0,-0.541 0,-1.082 0,-0.541 0,-0.879 0,-1.082 0.077,-1.691 0.766,-2.975 1.992,-3.922 1.225,-0.947 2.911,-1.42 5.055,-1.42 2.145,0 3.83,0.473 5.133,1.42 1.225,0.947 1.915,2.231 1.991,3.922 v 1.082 1.082 c -0.076,1.69 -0.766,2.975 -1.991,3.922 -1.226,0.947 -2.911,1.42 -5.133,1.42 -2.144,0 -3.906,-0.473 -5.055,-1.42 z m 6.817,-2.096 c 0.383,-0.406 0.613,-1.082 0.613,-1.961 0,-0.136 0,-0.474 0,-0.947 0,-0.473 0,-0.812 0,-0.947 -0.077,-0.879 -0.306,-1.487 -0.689,-1.893 -0.383,-0.406 -0.996,-0.609 -1.762,-0.609 -1.456,0 -2.298,0.879 -2.375,2.57 v 0.947 0.946 c 0,0.879 0.23,1.488 0.613,1.961 0.383,0.406 0.996,0.609 1.762,0.609 0.919,-0.068 1.455,-0.271 1.838,-0.676 z"
       id="path549" />
    <path
       d="m 934.276,428.807 c -0.153,-0.135 -0.153,-0.27 -0.153,-0.405 v -11.158 c 0,-0.203 0.077,-0.338 0.153,-0.406 0.153,-0.135 0.307,-0.135 0.46,-0.135 h 3.064 c 0.23,0 0.383,0.067 0.459,0.135 0.154,0.135 0.23,0.271 0.23,0.406 v 0.879 c 0.46,-0.541 1.073,-0.947 1.839,-1.285 0.766,-0.338 1.608,-0.473 2.604,-0.473 1.609,0 2.834,0.473 3.83,1.42 0.996,0.947 1.456,2.231 1.456,3.922 v 6.627 c 0,0.135 -0.077,0.271 -0.154,0.406 -0.153,0.135 -0.306,0.203 -0.459,0.203 h -3.371 c -0.153,0 -0.306,-0.068 -0.459,-0.203 -0.153,-0.135 -0.23,-0.271 -0.23,-0.406 v -6.492 c 0,-0.744 -0.23,-1.285 -0.613,-1.69 -0.383,-0.406 -0.996,-0.609 -1.762,-0.609 -0.766,0 -1.379,0.203 -1.762,0.609 -0.459,0.405 -0.612,0.946 -0.612,1.69 v 6.492 c 0,0.135 -0.077,0.271 -0.154,0.406 -0.076,0.135 -0.306,0.203 -0.459,0.203 h -3.371 c -0.306,0 -0.459,0 -0.536,-0.136 z"
       id="path551" />
    <path
       d="m 951.511,428.807 c -0.153,-0.135 -0.229,-0.27 -0.229,-0.405 v -15.621 c 0,-0.203 0.076,-0.338 0.229,-0.406 0.154,-0.135 0.307,-0.135 0.46,-0.135 h 3.141 c 0.229,0 0.383,0.067 0.459,0.135 0.153,0.135 0.153,0.27 0.153,0.406 v 15.621 c 0,0.203 -0.076,0.338 -0.153,0.405 -0.153,0.136 -0.306,0.136 -0.459,0.136 h -3.141 c -0.153,0 -0.306,-0.068 -0.46,-0.136 z"
       id="path553" />
    <path
       d="m 959.095,414.742 c -0.153,-0.135 -0.153,-0.271 -0.153,-0.406 v -2.096 c 0,-0.203 0.076,-0.338 0.153,-0.406 0.153,-0.135 0.306,-0.135 0.46,-0.135 h 3.217 c 0.23,0 0.383,0.067 0.459,0.135 0.154,0.135 0.154,0.271 0.154,0.406 v 2.096 c 0,0.203 -0.077,0.338 -0.154,0.406 -0.153,0.135 -0.306,0.135 -0.459,0.135 h -3.141 c -0.23,0 -0.383,-0.068 -0.536,-0.135 z m 0.077,14.065 c -0.154,-0.135 -0.154,-0.27 -0.154,-0.405 v -11.158 c 0,-0.203 0.077,-0.338 0.154,-0.406 0.153,-0.135 0.306,-0.135 0.459,-0.135 h 3.141 c 0.23,0 0.383,0.067 0.459,0.135 0.154,0.135 0.154,0.271 0.154,0.406 v 11.158 c 0,0.135 -0.077,0.27 -0.154,0.405 -0.153,0.136 -0.306,0.203 -0.459,0.203 h -3.141 c -0.153,-0.067 -0.383,-0.067 -0.459,-0.203 z"
       id="path555" />
    <path
       d="m 966.832,428.807 c -0.154,-0.135 -0.154,-0.27 -0.154,-0.405 v -11.158 c 0,-0.203 0.077,-0.338 0.154,-0.406 0.153,-0.135 0.306,-0.135 0.459,-0.135 h 3.064 c 0.23,0 0.383,0.067 0.46,0.135 0.153,0.135 0.23,0.271 0.23,0.406 v 0.879 c 0.459,-0.541 1.072,-0.947 1.838,-1.285 0.766,-0.338 1.609,-0.473 2.605,-0.473 1.608,0 2.834,0.473 3.83,1.42 0.995,0.947 1.455,2.231 1.455,3.922 v 6.627 c 0,0.135 -0.077,0.271 -0.153,0.406 -0.153,0.135 -0.307,0.203 -0.46,0.203 h -3.37 c -0.153,0 -0.307,-0.068 -0.46,-0.203 -0.153,-0.135 -0.23,-0.271 -0.23,-0.406 v -6.492 c 0,-0.744 -0.229,-1.285 -0.612,-1.69 -0.383,-0.406 -0.996,-0.609 -1.762,-0.609 -0.766,0 -1.379,0.203 -1.762,0.609 -0.46,0.405 -0.613,0.946 -0.613,1.69 v 6.492 c 0,0.135 -0.076,0.271 -0.153,0.406 -0.153,0.135 -0.306,0.203 -0.46,0.203 h -3.447 c -0.153,0 -0.306,0 -0.459,-0.136 z"
       id="path557" />
    <path
       d="m 985.216,427.658 c -1.226,-1.015 -1.915,-2.502 -1.915,-4.463 v -0.812 c 0.077,-1.893 0.766,-3.313 1.992,-4.395 1.225,-1.082 2.91,-1.556 4.979,-1.556 1.532,0 2.834,0.271 3.83,0.812 1.072,0.541 1.838,1.285 2.374,2.231 0.537,0.947 0.766,2.029 0.766,3.246 v 0.541 c 0,0.136 -0.076,0.271 -0.153,0.406 -0.153,0.135 -0.306,0.203 -0.459,0.203 h -8.58 v 0.135 c 0,0.744 0.23,1.353 0.613,1.826 0.383,0.473 0.919,0.676 1.609,0.676 0.459,0 0.842,-0.067 1.072,-0.27 0.306,-0.136 0.536,-0.338 0.766,-0.609 0.153,-0.203 0.306,-0.27 0.383,-0.338 0.077,-0.068 0.23,-0.068 0.46,-0.068 h 3.294 c 0.153,0 0.306,0.068 0.383,0.136 0.153,0.067 0.153,0.202 0.153,0.338 0,0.405 -0.23,0.879 -0.766,1.42 -0.536,0.541 -1.302,1.014 -2.298,1.42 -0.996,0.406 -2.145,0.608 -3.524,0.608 -1.992,0.068 -3.753,-0.473 -4.979,-1.487 z m 7.354,-6.086 c 0,-0.812 -0.23,-1.42 -0.613,-1.894 -0.383,-0.473 -0.996,-0.676 -1.685,-0.676 -0.69,0 -1.226,0.203 -1.686,0.676 -0.383,0.474 -0.612,1.082 -0.612,1.826 v 0.068 z"
       id="path559" />
  </g>
  <g
     id="g1252"
     transform="matrix(0.287496,0,0,0.287496,622.5287,275.13546)">
    <path
       class="cls-2"
       d="m 256.2,292.72 c 1.55,-0.9 3.47,-0.9 5.02,0 l 28.58,16.5 c 1.55,0.9 2.51,2.55 2.51,4.35 v 33 c 0,1.79 -0.96,3.45 -2.51,4.35 l -28.58,16.5 c -1.55,0.9 -3.47,0.9 -5.02,0 l -28.58,-16.5 c -1.55,-0.9 -2.51,-2.55 -2.51,-4.35 v -33 c 0,-1.79 0.96,-3.45 2.51,-4.35 z"
       id="path1068"
       style="fill:#ffffff;stroke-width:0px" />
    <path
       class="cls-1"
       d="m 207.1,217.17 c -8.45,-0.03 -16.27,4.45 -20.52,11.75 l -21.77,37.41 c 8.39,4.88 19.14,2.04 24.03,-6.35 l 12.93,-22.22 c 1.09,-1.88 3.1,-3.03 5.27,-3.02 l 25.71,0.09 c 9.71,0.03 17.6,-7.81 17.63,-17.51 z m 59.55,0.2 c -0.03,9.7 7.81,17.6 17.51,17.63 l 25.71,0.09 c 2.17,0 4.17,1.17 5.25,3.06 l 12.78,22.31 c 4.82,8.42 15.56,11.34 23.98,6.51 l -21.51,-37.55 c -4.2,-7.33 -11.99,-11.87 -20.44,-11.89 l -43.28,-0.15 z m 93.32,63.72 c -8.42,4.82 -11.34,15.56 -6.51,23.98 l 12.78,22.31 c 1.08,1.88 1.07,4.2 -0.02,6.08 l -12.93,22.22 c -4.88,8.39 -2.04,19.14 6.35,24.03 l 21.77,-37.41 c 4.25,-7.3 4.28,-16.32 0.08,-23.65 L 359.98,281.1 Z m -8.53,112.67 c -8.39,-4.88 -19.14,-2.04 -24.02,6.35 l -12.93,22.22 c -1.09,1.88 -3.1,3.03 -5.27,3.02 l -25.71,-0.09 c -9.7,-0.03 -17.6,7.81 -17.63,17.51 l 43.28,0.15 c 8.45,0.03 16.27,-4.45 20.52,-11.75 l 21.77,-37.41 z M 249.6,442.72 c 0.03,-9.7 -7.81,-17.6 -17.51,-17.63 L 206.38,425 c -2.17,0 -4.17,-1.17 -5.25,-3.06 l -12.78,-22.31 c -4.82,-8.42 -15.56,-11.34 -23.98,-6.51 l 21.51,37.55 c 4.2,7.33 11.99,11.86 20.44,11.89 l 43.28,0.15 z M 156.29,379 c 8.42,-4.82 11.34,-15.56 6.51,-23.98 l -12.78,-22.31 c -1.08,-1.88 -1.07,-4.2 0.02,-6.08 l 12.93,-22.22 c 4.88,-8.39 2.04,-19.14 -6.35,-24.03 l -21.76,37.42 c -4.25,7.3 -4.28,16.32 -0.08,23.65 l 21.51,37.56 z"
       id="path1070"
       style="fill:#ffffff;fill-rule:evenodd;stroke-width:0px" />
    <path
       class="cls-2"
       d="m 728.82,441.91 -37.69,-92.02 -10.96,-1.47 v -12.43 h 44.44 v 12.43 l -13.8,1.96 23.49,60.3 2.74,8.52 h 0.59 l 3.13,-8.52 21.83,-60.3 -14.2,-1.96 v -12.43 h 44.35 v 12.43 l -11.16,1.47 -35.83,92.02 h -16.94 z"
       id="path1072"
       style="fill:#ffffff;stroke-width:0px" />
    <path
       class="cls-2"
       d="m 631.69,443.97 c -9.79,0 -18.31,-2.22 -25.55,-6.66 -7.24,-4.5 -12.86,-10.74 -16.84,-18.7 -3.92,-7.96 -5.87,-17.16 -5.87,-27.61 v -4.31 c 0,-10.05 2.06,-19.02 6.17,-26.92 4.18,-7.96 9.69,-14.23 16.54,-18.8 6.92,-4.63 14.46,-6.95 22.61,-6.95 9.53,0 17.49,1.96 23.89,5.87 6.46,3.92 11.32,9.43 14.59,16.54 3.26,7.05 4.9,15.37 4.9,24.96 v 12.04 h -68.72 l -0.29,0.49 c 0.13,6.79 1.3,12.82 3.52,18.11 2.28,5.22 5.55,9.33 9.79,12.33 4.24,3 9.33,4.5 15.27,4.5 6.53,0 12.24,-0.91 17.13,-2.74 4.96,-1.89 9.23,-4.47 12.83,-7.73 l 7.54,12.53 c -3.79,3.65 -8.81,6.75 -15.08,9.3 -6.2,2.48 -13.67,3.72 -22.42,3.72 z m -27.7,-65.59 h 48.85 v -2.55 c 0,-5.09 -0.91,-9.63 -2.74,-13.61 -1.76,-4.05 -4.44,-7.21 -8.03,-9.5 -3.52,-2.35 -7.96,-3.52 -13.31,-3.52 -4.31,0 -8.22,1.27 -11.75,3.82 -3.52,2.48 -6.43,5.87 -8.71,10.18 -2.29,4.31 -3.79,9.2 -4.5,14.68 l 0.2,0.49 z"
       id="path1074"
       style="fill:#ffffff;stroke-width:0px" />
    <path
       class="cls-2"
       d="m 506.39,443.97 c -8.62,0 -16.02,-2.12 -22.22,-6.36 -6.14,-4.31 -10.83,-10.28 -14.1,-17.92 -3.26,-7.64 -4.9,-16.54 -4.9,-26.73 v -2.06 c 0,-11.36 1.63,-21.31 4.9,-29.86 3.26,-8.55 7.99,-15.17 14.19,-19.87 6.2,-4.76 13.64,-7.15 22.32,-7.15 6.27,0 11.78,1.18 16.54,3.52 4.83,2.29 8.94,5.61 12.33,9.99 v -43.17 l -15.96,-2.74 v -12.43 h 35.24 v 137.64 l 15.96,2.74 v 12.34 h -32.7 l -1.57,-12.63 c -3.46,4.83 -7.7,8.48 -12.73,10.96 -4.96,2.48 -10.74,3.72 -17.33,3.72 z m 4.9,-15.67 c 5.74,0 10.57,-1.31 14.49,-3.92 3.91,-2.61 7.15,-6.3 9.69,-11.06 v -49.14 c -2.48,-4.44 -5.71,-7.96 -9.69,-10.57 -3.98,-2.61 -8.75,-3.91 -14.29,-3.91 -6.14,0 -11.19,1.76 -15.17,5.29 -3.98,3.46 -6.95,8.29 -8.91,14.49 -1.96,6.13 -2.94,13.28 -2.94,21.44 v 2.06 c 0,10.64 2.19,19.19 6.56,25.65 4.37,6.46 11.13,9.69 20.26,9.69 z"
       id="path1076"
       style="fill:#ffffff;stroke-width:0px" />
    <path
       class="cls-2"
       d="m 378.1,450.55 72.76,-148.74 16.19,1.42 -72.66,148.75 -16.29,-1.42 z"
       id="path1078"
       style="fill:#ffffff;stroke-width:0px" />
    <path
       class="cls-2"
       d="m 780.1,450.55 72.76,-148.74 16.19,1.42 -72.66,148.75 -16.29,-1.42 z"
       id="path1080"
       style="fill:#ffffff;stroke-width:0px" />
    <path
       class="cls-2"
       d="m 1140.07,441.91 v -12.34 l 15.96,-2.74 V 304.36 l -15.96,-2.74 v -12.43 h 35.24 v 137.64 l 15.96,2.74 v 12.34 z"
       id="path1082"
       style="fill:#ffffff;stroke-width:0px" />
    <path
       class="cls-2"
       d="m 1106.98,443.58 c -7.83,0 -14.07,-2.29 -18.7,-6.85 -4.57,-4.63 -6.85,-12.01 -6.85,-22.12 v -64.32 h -16.74 V 336 h 16.74 v -25.55 h 19.28 V 336 h 23.01 v 14.29 h -23.01 v 64.32 c 0,5.09 1.01,8.84 3.04,11.26 2.02,2.42 4.73,3.62 8.12,3.62 2.29,0 4.83,-0.2 7.64,-0.59 2.8,-0.46 4.99,-0.85 6.56,-1.17 l 2.64,12.63 c -2.81,0.85 -6.26,1.6 -10.38,2.25 -4.04,0.65 -7.83,0.98 -11.35,0.98 z"
       id="path1084"
       style="fill:#ffffff;stroke-width:0px" />
    <path
       class="cls-2"
       d="m 879.87,441.91 v -12.33 l 15.96,-2.74 v -75.67 l -15.96,-2.74 V 336 h 33.28 l 1.27,13.8 c 3.39,-5.02 7.77,-8.91 13.12,-11.65 5.35,-2.74 11.55,-4.11 18.6,-4.11 7.05,0 13.09,1.63 18.11,4.9 5.09,3.26 8.91,8.16 11.45,14.68 3.33,-6 7.73,-10.77 13.22,-14.29 5.48,-3.52 11.88,-5.29 19.19,-5.29 10.83,0 19.38,3.72 25.65,11.16 6.27,7.38 9.4,18.5 9.4,33.38 v 48.26 l 15.96,2.74 v 12.33 h -51.3 v -12.33 l 15.96,-2.74 v -48.46 c 0,-10.44 -1.79,-17.82 -5.38,-22.12 -3.59,-4.37 -8.91,-6.56 -15.96,-6.56 -7.05,0 -12.14,2.38 -16.25,7.15 -4.05,4.7 -6.4,10.64 -7.05,17.82 v 52.18 l 15.96,2.74 v 12.33 h -51.2 v -12.33 l 15.96,-2.74 v -48.46 c 0,-9.92 -1.86,-17.16 -5.58,-21.73 -3.65,-4.63 -8.97,-6.95 -15.96,-6.95 -5.87,0 -10.7,1.21 -14.49,3.62 -3.78,2.42 -6.69,5.81 -8.71,10.18 v 63.34 l 15.96,2.74 v 12.33 h -51.2 z"
       id="path1086"
       style="fill:#ffffff;stroke-width:0px" />
  </g>
</svg>
