<?xml version="1.0" encoding="UTF-8" standalone="no"?>
<svg
   viewBox="0 0 100 100"
   version="1.1"
   id="svg8"
   sodipodi:docname="compass.svg"
   inkscape:version="1.1.2 (0a00cf5339, 2022-02-04)"
   xmlns:inkscape="http://www.inkscape.org/namespaces/inkscape"
   xmlns:sodipodi="http://sodipodi.sourceforge.net/DTD/sodipodi-0.dtd"
   xmlns="http://www.w3.org/2000/svg"
   xmlns:svg="http://www.w3.org/2000/svg">
  <defs
     id="defs12" />
  <sodipodi:namedview
     id="namedview10"
     pagecolor="#ffffff"
     bordercolor="#666666"
     borderopacity="1.0"
     inkscape:pageshadow="2"
     inkscape:pageopacity="0.0"
     inkscape:pagecheckerboard="0"
     showgrid="false"
     inkscape:zoom="6.44"
     inkscape:cx="49.92236"
     inkscape:cy="50"
     inkscape:window-width="1920"
     inkscape:window-height="1051"
     inkscape:window-x="3286"
     inkscape:window-y="0"
     inkscape:window-maximized="1"
     inkscape:current-layer="svg8" />
  <g
     fill="#430632"
     id="g6"
     style="fill:#ff9b63;fill-opacity:1">
    <path
       d="m50 13.16a36.84 36.84 0 1 0 36.84 36.84 36.89 36.89 0 0 0 -36.84-36.84zm0 70.58a33.74 33.74 0 1 1 33.74-33.74 33.78 33.78 0 0 1 -33.74 33.74z"
       id="path2"
       style="fill:#ff9b63;fill-opacity:1" />
    <path
       d="m68.77 31.23a3.38 3.38 0 0 0 -4.1-.48l-19.74 11a3 3 0 0 0 -1.43 1.75 3 3 0 0 0 -1.79 1.43l-11 19.73a3.35 3.35 0 0 0 .48 4.11 3.25 3.25 0 0 0 2.32 1 3.66 3.66 0 0 0 1.78-.48l19.74-11a3 3 0 0 0 1.47-1.79 3 3 0 0 0 1.79-1.42l11-19.74a3.64 3.64 0 0 0 .49-1.8 3.24 3.24 0 0 0 -1.01-2.31zm-22.21 13.12 19.62-10.89c.13-.08.3-.14.39-.05s.05.28 0 .41l-10.91 19.63zm6.9 11.28-19.64 10.91c-.13.08-.3.14-.39 0s0-.28 0-.41l10.92-19.57z"
       id="path4"
       style="fill:#ff9b63;fill-opacity:1" />
  </g>
</svg>
